HIERARCHY
ROOT Hips
{
	OFFSET -14.64140 90.27770 -84.91600
	CHANNELS 6 Xposition Yposition Zposition Zrotation Xrotation Yrotation
	JOINT Spine
	{
		OFFSET 0.00000 13.20850 -1.60436
		CHANNELS 3 Zrotation Xrotation Yrotation
		JOINT Spine1
		{
			OFFSET 0.00000 8.61716 0.00000
			CHANNELS 3 Zrotation Xrotation Yrotation
			JOINT Spine2
			{
				OFFSET 0.00000 8.61717 0.00000
				CHANNELS 3 Zrotation Xrotation Yrotation
				JOINT Spine3
				{
					OFFSET 0.00000 8.61717 0.00000
					CHANNELS 3 Zrotation Xrotation Yrotation
					JOINT Neck
					{
						OFFSET 0.00000 11.07920 1.10792
						CHANNELS 3 Zrotation Xrotation Yrotation
						JOINT Neck1
						{
							OFFSET 0.00000 7.08032 0.00000
							CHANNELS 3 Zrotation Xrotation Yrotation
							JOINT Head
							{
								OFFSET 0.00000 7.08031 0.00000
								CHANNELS 3 Zrotation Xrotation Yrotation
								End site
								{
									OFFSET 0.00000 0.00000 0.00000
								}
							}
						}
					}
					JOINT RightShoulder
					{
						OFFSET -0.01000 7.91373 5.19711
						CHANNELS 3 Zrotation Xrotation Yrotation
						JOINT RightArm
						{
							OFFSET -18.41580 0.00000 0.00000
							CHANNELS 3 Zrotation Xrotation Yrotation
							JOINT RightForeArm
							{
								OFFSET -29.11090 0.00000 0.00000
								CHANNELS 3 Zrotation Xrotation Yrotation
								JOINT RightHand
								{
									OFFSET -24.65040 0.00000 0.00000
									CHANNELS 3 Zrotation Xrotation Yrotation
									JOINT RightHandThumb1
									{
										OFFSET -5.35114 -0.85590 3.97906
										CHANNELS 3 Zrotation Xrotation Yrotation
										JOINT RightHandThumb2
										{
											OFFSET -4.52789 0.00000 0.00000
											CHANNELS 3 Zrotation Xrotation Yrotation
											JOINT RightHandThumb3
											{
												OFFSET -2.46976 0.00000 0.00000
												CHANNELS 3 Zrotation Xrotation Yrotation
												End site
												{
													OFFSET 0.00000 0.00000 0.00000
												}
											}
										}
									}
									JOINT RightHandIndex1
									{
										OFFSET -14.26970 0.00000 2.88139
										CHANNELS 3 Zrotation Xrotation Yrotation
										JOINT RightHandIndex2
										{
											OFFSET -5.48836 0.00000 0.00000
											CHANNELS 3 Zrotation Xrotation Yrotation
											JOINT RightHandIndex3
											{
												OFFSET -3.01859 0.00000 0.00000
												CHANNELS 3 Zrotation Xrotation Yrotation
												End site
												{
													OFFSET 0.00000 0.00000 0.00000
												}
											}
										}
									}
									JOINT RightHandMiddle1
									{
										OFFSET -14.26970 0.00000 -0.09147
										CHANNELS 3 Zrotation Xrotation Yrotation
										JOINT RightHandMiddle2
										{
											OFFSET -6.17441 0.00000 0.00000
											CHANNELS 3 Zrotation Xrotation Yrotation
											JOINT RightHandMiddle3
											{
												OFFSET -3.56743 0.00000 0.00000
												CHANNELS 3 Zrotation Xrotation Yrotation
												End site
												{
													OFFSET 0.00000 0.00000 0.00000
												}
											}
										}
									}
									JOINT RightHandRing1
									{
										OFFSET -12.69180 0.00000 -3.06433
										CHANNELS 3 Zrotation Xrotation Yrotation
										JOINT RightHandRing2
										{
											OFFSET -5.62556 0.00000 0.00000
											CHANNELS 3 Zrotation Xrotation Yrotation
											JOINT RightHandRing3
											{
												OFFSET -3.56744 0.00000 0.00000
												CHANNELS 3 Zrotation Xrotation Yrotation
												End site
												{
													OFFSET 0.00000 0.00000 0.00000
												}
											}
										}
									}
									JOINT RightHandPinky1
									{
										OFFSET -11.11390 0.00000 -6.03719
										CHANNELS 3 Zrotation Xrotation Yrotation
										JOINT RightHandPinky2
										{
											OFFSET -4.52789 0.00000 0.00000
											CHANNELS 3 Zrotation Xrotation Yrotation
											JOINT RightHandPinky3
											{
												OFFSET -2.46976 0.00000 0.00000
												CHANNELS 3 Zrotation Xrotation Yrotation
												End site
												{
													OFFSET 0.00000 0.00000 0.00000
												}
											}
										}
									}
								}
							}
						}
					}
					JOINT LeftShoulder
					{
						OFFSET 0.01000 7.91373 5.19711
						CHANNELS 3 Zrotation Xrotation Yrotation
						JOINT LeftArm
						{
							OFFSET 18.41580 0.00000 0.00000
							CHANNELS 3 Zrotation Xrotation Yrotation
							JOINT LeftForeArm
							{
								OFFSET 29.11090 0.00000 0.00000
								CHANNELS 3 Zrotation Xrotation Yrotation
								JOINT LeftHand
								{
									OFFSET 24.65040 0.00000 0.00000
									CHANNELS 3 Zrotation Xrotation Yrotation
									JOINT LeftHandThumb1
									{
										OFFSET 5.35114 -0.85590 3.97906
										CHANNELS 3 Zrotation Xrotation Yrotation
										JOINT LeftHandThumb2
										{
											OFFSET 4.52789 0.00000 0.00000
											CHANNELS 3 Zrotation Xrotation Yrotation
											JOINT LeftHandThumb3
											{
												OFFSET 2.46977 0.00000 0.00000
												CHANNELS 3 Zrotation Xrotation Yrotation
												End site
												{
													OFFSET 0.00000 0.00000 0.00000
												}
											}
										}
									}
									JOINT LeftHandIndex1
									{
										OFFSET 14.26970 0.00000 2.88139
										CHANNELS 3 Zrotation Xrotation Yrotation
										JOINT LeftHandIndex2
										{
											OFFSET 5.48836 0.00000 0.00000
											CHANNELS 3 Zrotation Xrotation Yrotation
											JOINT LeftHandIndex3
											{
												OFFSET 3.01859 0.00000 0.00000
												CHANNELS 3 Zrotation Xrotation Yrotation
												End site
												{
													OFFSET 0.00000 0.00000 0.00000
												}
											}
										}
									}
									JOINT LeftHandMiddle1
									{
										OFFSET 14.26970 0.00000 -0.09147
										CHANNELS 3 Zrotation Xrotation Yrotation
										JOINT LeftHandMiddle2
										{
											OFFSET 6.17440 0.00000 0.00000
											CHANNELS 3 Zrotation Xrotation Yrotation
											JOINT LeftHandMiddle3
											{
												OFFSET 3.56744 0.00000 0.00000
												CHANNELS 3 Zrotation Xrotation Yrotation
												End site
												{
													OFFSET 0.00000 0.00000 0.00000
												}
											}
										}
									}
									JOINT LeftHandRing1
									{
										OFFSET 12.69180 0.00000 -3.06433
										CHANNELS 3 Zrotation Xrotation Yrotation
										JOINT LeftHandRing2
										{
											OFFSET 5.62556 0.00000 0.00000
											CHANNELS 3 Zrotation Xrotation Yrotation
											JOINT LeftHandRing3
											{
												OFFSET 3.56744 0.00000 0.00000
												CHANNELS 3 Zrotation Xrotation Yrotation
												End site
												{
													OFFSET 0.00000 0.00000 0.00000
												}
											}
										}
									}
									JOINT LeftHandPinky1
									{
										OFFSET 11.11390 0.00000 -6.03719
										CHANNELS 3 Zrotation Xrotation Yrotation
										JOINT LeftHandPinky2
										{
											OFFSET 4.52789 0.00000 0.00000
											CHANNELS 3 Zrotation Xrotation Yrotation
											JOINT LeftHandPinky3
											{
												OFFSET 2.46976 0.00000 0.00000
												CHANNELS 3 Zrotation Xrotation Yrotation
												End site
												{
													OFFSET 0.00000 0.00000 0.00000
												}
											}
										}
									}
								}
							}
						}
					}
					JOINT pCube4
					{
						OFFSET 0.00000 10.91090 1.10792
						CHANNELS 3 Zrotation Xrotation Yrotation
						End site
						{
							OFFSET 0.00000 0.00000 0.00000
						}
					}
				}
			}
		}
	}
	JOINT RightUpLeg
	{
		OFFSET -9.98441 0.00000 0.00000
		CHANNELS 3 Zrotation Xrotation Yrotation
		JOINT RightLeg
		{
			OFFSET 0.00000 -42.11790 0.00000
			CHANNELS 3 Zrotation Xrotation Yrotation
			JOINT RightFoot
			{
				OFFSET 0.00000 -45.00020 -0.00001
				CHANNELS 3 Zrotation Xrotation Yrotation
				JOINT RightForeFoot
				{
					OFFSET 0.00000 -3.74820 0.00000
					CHANNELS 3 Zrotation Xrotation Yrotation
					JOINT RightToeBase
					{
						OFFSET 0.00000 0.06325 14.43120
						CHANNELS 3 Zrotation Xrotation Yrotation
						End site
						{
							OFFSET 0.00000 0.00000 0.00000
						}
					}
				}
			}
		}
	}
	JOINT LeftUpLeg
	{
		OFFSET 9.98441 0.00000 0.00000
		CHANNELS 3 Zrotation Xrotation Yrotation
		JOINT LeftLeg
		{
			OFFSET 0.00000 -42.11800 0.00000
			CHANNELS 3 Zrotation Xrotation Yrotation
			JOINT LeftFoot
			{
				OFFSET 0.00000 -45.00070 0.00000
				CHANNELS 3 Zrotation Xrotation Yrotation
				JOINT LeftForeFoot
				{
					OFFSET 0.00000 -3.74824 0.00000
					CHANNELS 3 Zrotation Xrotation Yrotation
					JOINT LeftToeBase
					{
						OFFSET 0.00000 0.06325 14.43110
						CHANNELS 3 Zrotation Xrotation Yrotation
						End site
						{
							OFFSET 0.00000 0.00000 0.00000
						}
					}
				}
			}
		}
	}
}
MOTION
Frames: 4
Frame Time: 0.050000
-0.01032266000119506 -0.03405711972446857 -0.03173642141469806 0.009905702551627153 0.015391201670660283 0.007292737304413464 -3.037331214098278 0.543238583672985 -0.6368812574151526 -0.936397513677587 3.7488589808530848 0.34905475853537216 -1.349500939851732 -2.163948384471461 0.06380202953327292 0.07146808798466976 0.29077346689343536 -0.6623670222073664 0.7678527814000966 14.096375488010137 -1.596629511413836 0.16831412309938903 0.2966490756701452 -6.422441224355233 0.9303879577033294 -14.572439121903477 -0.5399688405369973 -7.423091923371112 2.4225348330875476 -13.262017100530848 75.10755862153823 10.535209019101167 31.59368623049753 26.820241194022344 5.6768951897742435 76.83099537817168 18.070921927934464 -0.3261115318147416 -1.5166529070094954 4.485680278094099 -0.10116034025187133 -1.6045651828926142 -0.028574075397569034 -0.0080175729176215 -56.24052884983272 0.00826521832853247 0.013022583958205033 -56.192779431519575 -38.72561314638219 0.015825426633810757 -0.005230409010963226 0.01068182980539745 -0.012794239042784044 -0.017300091766602167 0.005199179145198688 -0.024369280186642302 -0.03334406491432494 -36.73976378755599 0.01686671123669574 0.01725710573577066 -0.024086393930821827 -0.038890043065578056 -0.0018582938734418477 -0.007792084369433024 0.009624801375567904 -0.010472143165727733 -19.733702852511502 0.004487792946870877 0.0243094904799816 0.04844790446361498 0.02262260160833562 -0.015671457224056443 0.041456101606020125 0.030901540459251878 -0.03536433150765773 24.08763682886003 0.01485793472985502 0.017010877253722554 28.83915477200278 0.010820768113903695 -0.02404506774073569 28.907761595848683 0.007761874479722726 0.04694154018174915 5.8491377732213135 1.3406328230245617 12.059864433860037 -67.77857924013244 24.78053516754995 -12.58748991030042 -15.12394668177615 -1.1299354344024435 -69.6851138451386 -8.851755380047567 3.9266196099926307 -1.7911526766758907 -0.47708648567968903 0.020388520299254122 -8.108948622675438 0.007900272927349752 -0.03399582430567025 44.57018741195453 -0.034185694071721714 0.0325135051545042 44.53237287719593 12.450717859304017 -0.04276228562956356 -0.03924060965066262 -0.02859886149587814 0.04831808985952269 0.01632079436026141 0.02731714990952312 0.039406236176544325 -0.016812226422011634 11.075276161137621 0.0109746767044242 -0.03897214684598737 -0.0009075573250858969 -0.03924337483663008 0.016547568533728404 0.001117880383439587 -0.013149046500558157 -0.003444123647884824 4.728082671329685 -0.002123684908551165 0.018916087960899226 -0.01795160889067072 0.022101718600705533 -0.016852531340031462 0.006701238389543549 0.016397736714865243 -0.03801922975768922 -5.642141504359855 -0.004051612393899629 -0.000983068365462216 -6.73934601779005 0.012410978316789573 -0.023466824400224892 -6.695937854161297 0.004783183038479077 -0.030796808965083026 0.035305010994745076 0.04248515631615789 0.036718154802534465 8.0523344758831 3.500418554386909 -19.188871596904793 -0.024323273709189668 10.390760177056823 -0.021176660780267306 -5.581447417895416 -15.687678530309102 3.1781352937513954 -0.008334098580843873 -0.007817057560811429 -0.0035170810597157823 0.02896857338640265 4.682285997178588 -0.038849273723030264 12.42078147110121 -8.253142744054232 6.902411690389813 0.0438559994486313 46.33583914740053 0.013671466121742824 -4.333035473222813 -14.711933454964452 -3.831447828109851 0.014508027778353883 0.03820135128592064 -0.040447200398521364 -0.02564387128707656 -10.74424738383983 0.02457553147258127 
-0.044092183433725236 -0.03697786529757389 -0.022973108881565257 0.04570068775322512 0.0006859012433975363 0.04583904274940733 -2.9395802951042387 0.47218856281841337 -0.6565783127516504 -0.9292962527539892 3.7166756711662705 0.4079319773075764 -1.3999771975018784 -2.1592609664871643 -0.05574176717651574 0.1490571574125122 0.25489286447849224 -0.7544369289765572 0.7777358358262896 14.066368236971202 -1.835414650262503 0.2298683850486607 0.39583355385980695 -6.88487529862842 0.9684008827526186 -14.547157647638745 -0.5311918118273002 -7.3989950885853615 2.3879442766041556 -13.233745335348697 74.60375656467363 9.301701038503545 31.291789689884336 32.191726546885974 5.797492590240255 78.74329671504597 19.100409718859034 -0.3819131921572866 -1.7654562794103377 4.558253839258531 -0.09975635747141527 -1.6058526921438794 -0.023243834277600954 -0.041404304115428905 -56.26654276708745 0.025891180232046482 0.02690243019367744 -56.2443176431495 -38.738138302359424 0.03444865530736545 -0.02834462592895608 -0.003519446198454108 -0.03353538344074782 0.010186282669795462 0.02601034721368521 -0.01818051961214603 -0.008645827078033701 -36.668635874630034 0.04625423165667362 0.010190435388252286 0.018798322626607987 0.014830936151084712 -0.021596177528152374 0.04724817123046912 -0.029163586769719068 -0.0010349731256230458 -19.76099906478783 0.02334581353657494 0.009119424419627159 0.019585733499703675 -0.03706389159641463 -0.04200546525054795 0.008515381874383299 0.006517853448361363 0.011903990091938349 24.03900804887129 -0.027781766910008852 0.040659842082244706 28.902321556186653 0.03791324092049301 0.0351851930628986 28.834550249977724 -0.014666127991617118 -0.006874423936464725 6.126276768939302 1.4592758573117242 12.018141411704212 -67.46468990945638 23.049027799959646 -13.960935080884235 -20.92265588517343 2.4226166597913945 -74.27657970821433 -9.379482676606955 3.884595583021486 -2.0136133501231455 -0.4527878573837326 0.04065860066772823 -8.130640496177527 -0.015129037902801557 -0.028668221892142076 44.562514521026394 0.04165979874783001 0.012415945079465616 44.552377586766966 12.462913748145459 0.038385210963291796 0.028025271649971456 -0.017524871216222124 -0.02416588842647344 -0.0034459232341082983 0.008820302290150428 -0.002026049443982701 0.003166762975444734 11.118806733783394 0.04748422638903799 -0.03430958090878941 -0.026506439223965086 -0.030591322682275914 0.049991589232092466 -0.021560858636376495 -0.03479254303751926 0.007259566533334265 4.737804370868439 -0.026703968206538364 -0.0495203676794155 0.00779902008866093 0.048950557971495945 -0.0062955938434523665 -0.00037154503959037935 0.017695153534224732 0.010518168586086644 -5.581474079201839 -0.014884269436942148 0.015107030349685737 -6.749345166932436 0.007064459134396697 -0.042461635251029584 -6.737362412027523 0.024090321331300287 0.009309142001836346 -0.01663155144926103 0.0419150879204377 -0.038990593286341385 8.016116209085471 3.5071047698133153 -19.181042804408797 0.013762722138347986 10.41624184967142 0.028680590633722417 -5.607885365687238 -15.66090249593799 3.1659213950067713 0.01737995773362532 -0.02190064489554722 -0.018581418545980475 0.04028983852467475 4.728136438125927 -0.03857643688655069 12.50652553819456 -8.189718299139164 6.869978003630447 0.04224073255306116 46.40567935833171 0.011362438765387988 -4.3438588550634005 -14.752586765820825 -3.87830806916319 -0.015867506586872925 -0.02078778235573255 0.04046073167082473 0.006417908806056937 -10.759473734380622 0.03491479714220794 
-0.03105723134738374 0.04554897862242286 -0.03186364704362956 0.03243548143048513 -0.04525716227856599 -0.02828869645030671 -2.7644489480216095 0.2818047015011745 -0.6822991819803429 -0.8837739700745972 3.6940189822051748 0.40837135969273686 -1.3811171563478997 -2.2402100024830167 -0.10237302788098304 0.14827230638533642 0.17270649456953197 -0.6975537760529289 0.7412884564106554 14.167813627542454 -2.057132524375454 0.24250916413305162 0.41733149884498555 -7.2264436807345245 0.9664168143667801 -14.447458918736457 -0.5839888346303915 -7.520488678573895 2.459283098017967 -13.276453351328444 73.954134326387 6.758972565488171 31.655293821057825 39.348503580659155 5.473676412309336 82.70347798507034 19.806421131218215 -0.3726000891441551 -2.014756209606077 4.505807942620167 -0.0929789396134456 -1.585935146086893 -0.040219271061685664 -0.023001813032299336 -56.23024879172548 -0.00043463197450222386 0.023338083987343862 -56.18630030082814 -38.78707497963509 0.0107380580205685 -0.031106429435656564 -0.009562038676939428 0.006230795420761218 0.023773845643793378 -0.04054848757548305 -0.011373746879791891 -0.03581919147234999 -36.65804189469329 0.02065358355309951 -0.004115596556845295 0.04101864039254277 0.03612718083692857 -0.014272102303236936 -0.0022121519240168325 -0.022110797806819554 -0.04220397573037023 -19.79201728496392 0.034793927424355685 0.01896498009987391 -0.02752046331862988 -0.042457485315927156 -0.017022770958172805 0.005792375291557873 -0.009452408427115233 -0.014178932535530132 24.054428424216518 0.007375452551154337 -0.048345461760513346 28.82424577228236 0.014368535624031493 0.036114669423785835 28.833152150983288 0.014249131861387772 -0.0007756361057709717 6.502467721157786 1.5433798993927075 11.979935263587265 -67.25338985896092 21.164316770177745 -15.315772143039977 -29.03291982349215 6.027746791210888 -81.1187681405795 -10.007430759914339 3.971360587706858 -2.390018582386198 -0.46766919748172686 0.08266254078697023 -8.141041952753083 0.013004669978259976 -0.014475471120086805 44.61482973008778 0.01497363340872195 -0.02692866897872377 44.52596339392306 12.433584171037559 0.01185390786298516 0.006753541939598367 -0.04305698858667074 0.048332951021555035 -0.04427622406823803 -0.02211300505842637 -0.03012273210936738 -0.03514070512016148 11.102901245710608 0.000695739780582848 0.027969889368483363 0.046578093356228145 -0.03803181941569139 -0.006058252715459945 0.02322809385727765 0.015647137789814435 -0.005541938645903361 4.792830094263269 0.005161235775995336 0.009981097897755904 0.007354593698027896 -0.031440748211823834 0.03544683539420694 -0.0327698113175547 -0.040144878246481476 0.004686465262774243 -5.622506789621156 -0.0306289244055278 0.01763520590633506 -6.739448248899475 -0.02396681946225103 -0.015512404968508087 -6.680659192906083 0.0093693702868507 0.04826647345643079 -0.013399883704350121 0.04743635077671842 -0.008878906413561706 8.009876183821518 3.505487799432324 -19.203550136411415 -0.015435178340723927 10.380427767986268 -0.02485781369419843 -5.578485202291442 -15.618470569688874 3.234297059668369 0.009549912345130689 -0.025588077928085668 -0.007603408600154173 -0.011905778135877813 4.667321249867146 0.02862741698767396 12.41243610420232 -8.285984563078857 6.928021293798652 0.014107656528718105 46.354369608468375 0.010537104996480624 -4.2851844358561495 -14.739867278993351 -3.8760051740774597 -0.023310151835792752 -0.029556782856298022 0.04514975430961376 -0.010583854373388305 -10.758434072134781 -0.011809191790243478 
0.03747691316928947 -0.041953551600917245 0.015941349444471207 0.023266266657810744 0.04596656194309854 0.004721691118284723 -2.6758999408346376 0.0585880080061404 -0.7292610720423381 -0.9091436948162221 3.703549583008906 0.3388438811372924 -1.3717883150893075 -2.2471977342150127 -0.19168387898654243 0.18793536994326926 0.0693405263649717 -0.7520136486394322 0.8126091898329515 14.14273345941493 -2.123467651631243 0.16968131630060318 0.43545347543392476 -7.352658482054497 0.9458776254869451 -14.41979144947053 -0.5859910155532072 -7.725325280549944 2.449408705009419 -13.291839318968595 73.13311530081306 3.3085942930551173 32.42619478395085 46.46042334751533 4.322792028466924 87.32313302251241 20.287516959137733 -0.32392895909912794 -2.0955199286215156 4.5690708935435875 -0.10679913909931252 -1.5708157680724306 0.01589951661592265 -0.028628622554524537 -56.23792607275466 0.019551825809394307 0.03553896948169157 -56.27755724786923 -38.77856141836008 -0.030473442094448428 0.030872112524764704 -0.016815157843035042 0.006027967325037171 -0.04467736393705964 -0.0037469932814566936 -0.015552021072639585 -0.04630679151029421 -36.72947856389216 -0.04053127524210634 0.019605939076063367 -0.03901232923521236 0.032524224119378164 -0.022354192250885748 0.04356497389467995 -0.02251288630952202 0.029344502012285098 -19.715279650714525 0.008472330644723945 0.018149091507497127 0.02171214251739853 -0.026635084515128513 0.040809513069917605 0.0037812316581104653 -0.0021026459636140876 -0.009046436633447208 24.02402791080883 -0.045225055176465245 0.02941988787445869 28.874392766413575 -0.0014469053370565874 0.032836664658706764 28.82977201723342 -0.01924071548803465 -0.01161764946364882 6.7523026798983325 1.58208545062316 11.936933137948431 -67.06647948831272 19.709184288644078 -16.38360209875189 -37.84617601451937 8.456836439393467 -88.5159486466119 -10.599184016796313 3.928352158635914 -2.628368566563417 -0.48437230928014346 0.10389915723395157 -8.149432551849985 0.010880405541114042 0.008613574319599393 44.52008125556446 -0.01611409280965438 0.005083672460695818 44.60920224180187 12.496668584248733 -0.03830932850998091 0.04546859540981368 -0.01030146152728393 -0.008541521033731996 0.029208480402838594 0.04396202065050418 0.036897594231537156 -0.0334344771545446 11.092698945205946 -0.038556073032331675 -0.04993062626847367 -0.002881667496442006 -0.03276871147487935 0.004648975610408755 -0.017577483400806903 0.03268796523329415 -0.024268397894465124 4.7487238031484456 0.001685265925590036 0.009881103806079032 0.0003839754663232578 -0.03482184736504345 0.04157855739338199 -0.00873439762321228 0.018792012242274947 0.04558365461653264 -5.588626251850407 0.0006683969538503132 0.02665466069100596 -6.707114508601017 -0.025574713728463618 0.04789556883649249 -6.729272068448439 0.022473908046729992 0.02310246538260561 0.039597345491824566 -0.000998200778522623 -0.01602712752814474 8.050389613127976 3.5382508907535826 -19.253205685706376 0.005084214306330783 10.363257917749978 0.050091909004851304 -5.64939121858911 -15.666884465003037 3.240827443083026 0.019972738751540365 -0.03156855003507852 0.018099729704125524 0.027396601804188667 4.708051913302432 0.02609282404566074 12.459855665411409 -8.228858319350115 6.895437859599764 -0.007576666589282183 46.383799409647885 -0.013388630406519518 -4.282435617166639 -14.748363354980729 -3.810407719294572 -0.045501196772465266 -0.018665111983278672 0.010695389398954458 0.021233100806173508 -10.718278455947313 -0.021342334154300202 
